<svg xmlns="http://www.w3.org/2000/svg"  viewBox="0 0 48 48" width="48px" height="48px" clip-rule="evenodd" baseProfile="basic"><path fill-rule="evenodd" d="M2.001,28.999v2.001h44.004v-2.001	H2.001z" clip-rule="evenodd"/><path fill-rule="evenodd" d="M3.999,18.998v2.001h40.001v-2.001	H3.999z" clip-rule="evenodd"/><path fill-rule="evenodd" d="M7.838,35.93	c-0.272,0.047-0.552,0.069-0.837,0.069c-2.761,0-5-2.239-5-5c0-2.129,1.332-3.949,3.209-4.669c-0.651-1.651-1.209-3.475-1.209-5.331	c0-3.023,1.239-5.381,2.659-7.828c1.359-2.34,3.101-5.217,5.823-6.949c3.151-2.007,7.057-3.223,11.519-3.223c12.68,0,20,9.352,20,18	c0,1.845-0.589,3.688-1.231,5.324c1.887,0.716,3.231,2.541,3.231,4.676c0,2.761-2.24,5-5,5c-0.287,0-0.567-0.023-0.839-0.069	c-2.933,5.964-9.071,10.069-16.161,10.069C16.909,45.999,10.771,41.894,7.838,35.93z" clip-rule="evenodd"/><path fill="#fff" fill-rule="evenodd" d="M7.001,24.999	c2.208,0,4,1.792,4,4c0,2.208-1.792,4-4,4s-4-1.792-4-4C3.001,26.791,4.793,24.999,7.001,24.999z" clip-rule="evenodd"/><path fill-rule="evenodd" d="M2.001,28.999c0-2.76,2.239-5,5-5	c2.76,0,5,2.24,5,5c0,2.761-2.24,5-5,5C4.239,33.999,2.001,31.761,2.001,28.999z M10.001,28.999c0-1.655-1.345-3-3-3	c-1.656,0-3,1.345-3,3c0,1.656,1.344,3,3,3C8.655,31.999,10.001,30.655,10.001,28.999z" clip-rule="evenodd"/><path fill="#fff" fill-rule="evenodd" d="M41.001,24.999	c-2.208,0-4,1.792-4,4c0,2.208,1.792,4,4,4s4-1.792,4-4C45.001,26.791,43.209,24.999,41.001,24.999z" clip-rule="evenodd"/><path fill-rule="evenodd" d="M36.001,28.999c0-2.76,2.239-5,5-5	c2.76,0,5,2.24,5,5c0,2.761-2.24,5-5,5C38.239,33.999,36.001,31.761,36.001,28.999z M44.001,28.999c0-1.655-1.345-3-3-3	c-1.656,0-3,1.345-3,3c0,1.656,1.344,3,3,3C42.655,31.999,44.001,30.655,44.001,28.999z" clip-rule="evenodd"/><path fill="#fff" fill-rule="evenodd" d="M41.001,25.999h-34	c-0.941-2.169-2-4.575-2-7c0-2.732,1.108-4.887,2.524-7.327c1.371-2.36,3.007-5.024,5.495-6.608	c2.987-1.901,6.707-3.065,10.981-3.065c12.127,0,19,8.903,19,17C43.001,21.425,41.875,23.875,41.001,25.999z" clip-rule="evenodd"/><path fill-rule="evenodd" d="M40.619,26.925	c-0.511-0.211-0.755-0.795-0.544-1.305c0.909-2.208,1.925-4.44,1.925-6.62c0-7.545-6.428-16-18-16	c-4.089,0-7.623,1.113-10.445,2.909c-2.255,1.436-3.784,3.887-5.167,6.267c-1.412,2.433-2.388,4.384-2.388,6.824	c0,2.18,0.955,4.385,1.917,6.603c0.219,0.507-0.013,1.096-0.52,1.316c-0.507,0.219-1.096-0.013-1.316-0.52	c-0.92-2.121-2.081-4.727-2.081-7.399c0-3.023,1.239-5.381,2.659-7.828c1.359-2.34,3.101-5.217,5.823-6.949	c3.151-2.007,7.057-3.223,11.519-3.223c12.68,0,20,9.352,20,18c0,2.672-1.236,5.341-2.076,7.381	C41.714,26.891,41.13,27.135,40.619,26.925z" clip-rule="evenodd"/><path fill="#fff" fill-rule="evenodd" d="M24.001,8.999	c9.384,0,17,7.616,17,17s-7.616,17-17,17s-17-7.616-17-17S14.617,8.999,24.001,8.999z" clip-rule="evenodd"/><path fill-rule="evenodd" d="M6.001,25.999c0-9.936,8.063-18,18-18	c9.936,0,18,8.064,18,18c0,9.937-8.064,18-18,18C14.063,43.999,6.001,35.937,6.001,25.999z M40.001,25.999c0-8.831-7.169-16-16-16	c-8.832,0-16,7.169-16,16c0,8.832,7.168,16,16,16C32.831,41.999,40.001,34.831,40.001,25.999z" clip-rule="evenodd"/><path fill-rule="evenodd" d="M18.078,36.387	c-0.213-0.509,0.025-1.095,0.535-1.309c0.707-0.297,1.436-0.572,2.305-0.768c0.871-0.197,1.855-0.311,3.083-0.311	c1.227,0,2.211,0.113,3.081,0.311c0.869,0.196,1.599,0.471,2.305,0.768c0.509,0.215,0.748,0.8,0.535,1.309	c-0.215,0.509-0.8,0.748-1.309,0.535c-0.657-0.276-1.265-0.501-1.972-0.661c-0.707-0.16-1.541-0.261-2.64-0.261	c-1.1,0-1.935,0.101-2.641,0.261c-0.707,0.16-1.315,0.385-1.972,0.661C18.878,37.135,18.293,36.897,18.078,36.387z" clip-rule="evenodd"/><path fill-rule="evenodd" d="M10.001,21.499	c0-2.017,0.921-3.821,2.363-5.013c0.425-0.351,1.056-0.291,1.408,0.135c0.351,0.425,0.291,1.056-0.135,1.408	c-1.001,0.827-1.636,2.076-1.636,3.471c0,2.484,2.016,4.5,4.5,4.5c2.483,0,4.5-2.016,4.5-4.5c0-1.395-0.637-2.641-1.639-3.471	c-0.425-0.352-0.484-0.983-0.132-1.408c0.352-0.425,0.983-0.484,1.408-0.132c1.439,1.189,2.363,2.993,2.363,5.011	c0,3.589-2.912,6.5-6.5,6.5C12.911,27.999,10.001,25.089,10.001,21.499z" clip-rule="evenodd"/><path fill-rule="evenodd" d="M11.001,19.999c0-0.551,0.448-1,1-1h9	c0.551,0,1,0.449,1,1c0,0.552-0.449,1-1,1h-9C11.449,20.999,11.001,20.551,11.001,19.999z" clip-rule="evenodd"/><path fill-rule="evenodd" d="M16.501,19.999	c0.828,0,1.5,0.672,1.5,1.5c0,0.828-0.672,1.5-1.5,1.5c-0.828,0-1.5-0.672-1.5-1.5C15.001,20.671,15.673,19.999,16.501,19.999z" clip-rule="evenodd"/><path fill-rule="evenodd" d="M11.142,14.514	c-0.284-0.473-0.129-1.088,0.344-1.372c0.504-0.301,1.047-0.596,1.704-0.808c0.663-0.215,1.403-0.335,2.311-0.335	c0.907,0,1.647,0.12,2.309,0.335c0.657,0.212,1.2,0.507,1.704,0.808c0.473,0.284,0.628,0.899,0.344,1.372	c-0.284,0.473-0.899,0.628-1.372,0.344c-0.452-0.272-0.845-0.477-1.291-0.621c-0.441-0.143-0.973-0.237-1.695-0.237	c-0.723,0-1.255,0.095-1.696,0.237c-0.445,0.144-0.839,0.349-1.291,0.621C12.041,15.142,11.426,14.987,11.142,14.514z" clip-rule="evenodd"/><path fill-rule="evenodd" d="M25.003,21.499	c0-2.017,0.923-3.821,2.361-5.011c0.425-0.352,1.056-0.293,1.408,0.132c0.352,0.425,0.293,1.056-0.132,1.408	c-1.001,0.829-1.637,2.076-1.637,3.471c0,2.484,2.016,4.5,4.5,4.5c2.483,0,4.5-2.016,4.5-4.5c0-1.395-0.636-2.644-1.637-3.471	c-0.425-0.352-0.485-0.983-0.135-1.408c0.352-0.425,0.983-0.485,1.408-0.135c1.441,1.192,2.364,2.996,2.364,5.013	c0,3.589-2.912,6.5-6.5,6.5C27.914,27.999,25.003,25.089,25.003,21.499z" clip-rule="evenodd"/><path fill-rule="evenodd" d="M26.003,19.999c0-0.551,0.448-1,1-1h9	c0.551,0,1,0.449,1,1c0,0.552-0.449,1-1,1h-9C26.451,20.999,26.003,20.551,26.003,19.999z" clip-rule="evenodd"/><path fill-rule="evenodd" d="M31.503,19.999	c-0.828,0-1.5,0.672-1.5,1.5c0,0.828,0.672,1.5,1.5,1.5s1.5-0.672,1.5-1.5C33.003,20.671,32.331,19.999,31.503,19.999z" clip-rule="evenodd"/><path fill-rule="evenodd" d="M28.145,14.514	c-0.284-0.473-0.129-1.088,0.344-1.372c0.504-0.301,1.047-0.596,1.704-0.808c0.663-0.215,1.403-0.335,2.311-0.335	c0.907,0,1.647,0.12,2.309,0.335c0.657,0.212,1.2,0.507,1.704,0.808c0.473,0.284,0.628,0.899,0.344,1.372	c-0.284,0.473-0.899,0.628-1.372,0.344c-0.452-0.272-0.845-0.477-1.291-0.621c-0.441-0.143-0.973-0.237-1.695-0.237	c-0.723,0-1.255,0.095-1.696,0.237c-0.445,0.144-0.839,0.349-1.291,0.621C29.043,15.142,28.429,14.987,28.145,14.514z" clip-rule="evenodd"/><path fill-rule="evenodd" d="M23.371,31.355	c-0.681-0.4-1.403-0.968-2.077-1.643c-0.391-0.389-0.392-1.023-0.001-1.413c0.389-0.391,1.023-0.392,1.413-0.001	c0.577,0.576,1.167,1.032,1.677,1.332c0.127,0.075,0.245,0.137,0.355,0.189l0.143,0.063l-0.063-0.143	c-0.052-0.109-0.113-0.228-0.188-0.356c-0.299-0.511-0.756-1.1-1.332-1.676c-0.391-0.391-0.389-1.024,0-1.415	c0.391-0.391,1.024-0.389,1.415,0c0.675,0.676,1.244,1.399,1.644,2.08c0.371,0.635,0.692,1.395,0.637,2.103	c-0.028,0.351-0.153,0.739-0.467,1.053c-0.315,0.313-0.705,0.439-1.055,0.465C24.767,32.049,24.003,31.726,23.371,31.355z" clip-rule="evenodd"/></svg>